<svg height="512" viewBox="0 0 256 256" width="512" xmlns="http://www.w3.org/2000/svg"><path d="m140.469 209.44v17.31a15.274 15.274 0 0 1 -15.27 15.27h-102.23a15.274 15.274 0 0 1 -15.269-15.27v-17.31z" fill="#afafaf"/><path d="m63.86 170.17a5 5 0 0 0 4.87 6.13h71.74v33.14h-132.77v-180.19a15.274 15.274 0 0 1 15.27-15.27h102.23a15.274 15.274 0 0 1 15.27 15.27v61.36h-54.27a5.013 5.013 0 0 0 -4.87 3.88z" fill="#efefef"/><path d="m243.3 90.61h-157.1a5.013 5.013 0 0 0 -4.87 3.88l-17.47 75.68a5 5 0 0 0 4.87 6.13h157.1a5 5 0 0 0 4.87-3.88l17.48-75.68a5.006 5.006 0 0 0 -4.88-6.13z" fill="#76ffba"/><path d="m229.136 118.881-6.73 29.151c-7.977 0-15.941 6.465-17.782 14.442h-110.614c1.842-7.977-3.13-14.442-11.107-14.442l6.73-29.151c7.977 0 15.934-6.464 17.775-14.442h110.614c-1.842 7.978 3.137 14.442 11.114 14.442z" fill="#13bf6d"/><path d="m171.172 133.46c-1.94 8.4-10.323 15.154-18.652 15.154s-13.593-6.76-11.655-15.154c1.934-8.375 10.286-15.161 18.654-15.161s13.586 6.786 11.653 15.161z" fill="#76ffba"/><g fill="#f0c020"><path d="m196.8 65.154c-3.723-1.23-7.568-2.306-9.727-11.6-1.988 8.565-5.173 10.1-9.726 11.6 7.426 2.454 8.546 6.517 9.726 11.6 2.036-8.766 5.402-10.171 9.727-11.6z"/><path d="m230.8 53.552c-3.723-1.23-7.568-2.3-9.727-11.6-1.988 8.565-5.173 10.1-9.726 11.6 7.426 2.454 8.546 6.517 9.726 11.6 2.033-8.765 5.399-10.17 9.727-11.6z"/><path d="m190.508 203.761c-3.722-1.23-7.567-2.305-9.726-11.6-1.988 8.565-5.174 10.1-9.727 11.6 7.426 2.454 8.547 6.517 9.727 11.605 2.035-8.766 5.4-10.175 9.726-11.605z"/></g><rect fill="#afafaf" height="15.167" rx="7.583" width="34.278" x="92.082" y="25.75"/><rect fill="#afafaf" height="10.75" rx="5.375" width="24.167" x="61.997" y="220.355"/><path d="m198.023 154.974h-80.236a2.5 2.5 0 1 1 0-5h78.855a32.98 32.98 0 0 1 15.358-12.438l2.5-10.841a22.81 22.81 0 0 1 -8.2-11.5 2.5 2.5 0 0 1 4.764-1.519 17.8 17.8 0 0 0 7.583 9.789 2.5 2.5 0 0 1 1.114 2.684l-3.193 13.831a2.5 2.5 0 0 1 -1.638 1.807 27.792 27.792 0 0 0 -14.758 11.963 2.5 2.5 0 0 1 -2.149 1.224zm-90.236 0h-4.038a2.5 2.5 0 1 1 0-5h4.038a2.5 2.5 0 0 1 0 5z" fill="#76ffba"/><path d="m126.36 196.751h-7.585a2.5 2.5 0 0 1 0-5h7.585a2.5 2.5 0 1 1 0 5zm-17.585 0h-89.082a2.5 2.5 0 0 1 -2.5-2.5v-160.918a2.5 2.5 0 0 1 5 0v158.418h86.582a2.5 2.5 0 0 1 0 5z" fill="#fff"/><path d="m176.563 67.528c6.285 2.076 7 5.147 8.076 9.795a2.5 2.5 0 0 0 4.871 0c1.79-7.719 4.426-8.59 8.075-9.795a2.5 2.5 0 0 0 0-4.748c-3.5-1.155-6.243-1.9-8.076-9.8a2.5 2.5 0 0 0 -4.87 0c-1.792 7.72-4.292 8.546-8.076 9.8a2.5 2.5 0 0 0 0 4.748zm10.52-6.676a12.767 12.767 0 0 0 3.739 4.325 12.353 12.353 0 0 0 -3.7 4.173 12.972 12.972 0 0 0 -3.914-4.139 12.406 12.406 0 0 0 3.875-4.359z"/><path d="m210.56 55.927c6.285 2.076 7 5.146 8.076 9.795a2.5 2.5 0 0 0 4.871 0c1.79-7.719 4.427-8.59 8.075-9.795a2.5 2.5 0 0 0 0-4.749c-3.5-1.154-6.243-1.9-8.076-9.795a2.5 2.5 0 0 0 -4.87 0c-1.792 7.719-4.292 8.545-8.076 9.8a2.5 2.5 0 0 0 0 4.744zm10.52-6.677a12.767 12.767 0 0 0 3.739 4.325 12.372 12.372 0 0 0 -3.7 4.173 12.969 12.969 0 0 0 -3.914-4.138 12.391 12.391 0 0 0 3.875-4.36z"/><path d="m191.293 201.387c-3.5-1.154-6.243-1.9-8.076-9.8a2.5 2.5 0 0 0 -4.87 0c-1.793 7.72-4.292 8.546-8.076 9.8a2.5 2.5 0 0 0 0 4.747c6.285 2.076 7 5.147 8.075 9.8a2.5 2.5 0 0 0 4.871 0c1.791-7.72 4.427-8.591 8.076-9.8a2.5 2.5 0 0 0 0-4.747zm-10.461 6.57a13 13 0 0 0 -3.914-4.139 12.388 12.388 0 0 0 3.873-4.359 12.756 12.756 0 0 0 3.739 4.325 12.372 12.372 0 0 0 -3.698 4.173z"/><circle cx="7.699" cy="57.39" r="2.5"/><path d="m5.2 226.75a17.788 17.788 0 0 0 17.77 17.77h102.23a17.8 17.8 0 0 0 17.77-17.77v-47.95h58.75a2.5 2.5 0 0 0 0-5h-132.991a2.5 2.5 0 0 1 -2.44-3.05l17.48-75.7a2.486 2.486 0 0 1 2.44-1.94h157.1a2.5 2.5 0 0 1 2.43 3.07l-17.47 75.68a2.5 2.5 0 0 1 -2.44 1.94h-4.11a2.5 2.5 0 0 0 0 5h4.11a7.471 7.471 0 0 0 7.31-5.81l17.47-75.69a7.508 7.508 0 0 0 -7.3-9.19h-100.34v-58.86a17.8 17.8 0 0 0 -17.769-17.77h-102.231a17.788 17.788 0 0 0 -17.769 17.77v18.15a2.5 2.5 0 0 0 5 0v-18.15a12.812 12.812 0 0 1 12.77-12.77h102.23a12.819 12.819 0 0 1 12.77 12.77v58.86h-51.761a7.461 7.461 0 0 0 -7.31 5.82l-17.48 75.68a7.523 7.523 0 0 0 7.31 9.19h69.24v28.143h-127.769v-139.553a2.5 2.5 0 0 0 -5 0zm5-14.807h127.77v14.807a12.819 12.819 0 0 1 -12.77 12.77h-102.231a12.812 12.812 0 0 1 -12.769-12.77z"/><path d="m94.009 164.97h110.62a2.473 2.473 0 0 0 2.43-1.94c1.47-6.71 8.65-12.57 15.35-12.5a2.51 2.51 0 0 0 2.43-1.94l6.73-29.15a2.5 2.5 0 0 0 -2.43-3.06c-6.405-.024-10.144-4.963-8.68-11.38a2.5 2.5 0 0 0 -2.44-3.06h-74.47a2.5 2.5 0 0 0 0 5h71.61c-.294 7.539 4.405 12.89 10.9 14.15l-5.67 24.57a21.913 21.913 0 0 0 -17.63 14.31h-105.88c.291-7.442-4.324-12.873-10.9-14.15l5.67-24.57a21.868 21.868 0 0 0 17.62-14.31h14.28a2.5 2.5 0 0 0 0-5h-16.14a2.5 2.5 0 0 0 -2.44 1.94c-1.4 6.448-8.279 12.5-15.34 12.5a2.483 2.483 0 0 0 -2.43 1.94l-6.73 29.15a2.5 2.5 0 0 0 2.43 3.06c6.5.025 10.119 5.09 8.68 11.38a2.487 2.487 0 0 0 2.43 3.06z"/><circle cx="133.549" cy="104.44" r="2.5"/><path d="m117.457 127.9-2.306 9.988a2.5 2.5 0 1 0 4.872 1.125l2.306-9.988a2.5 2.5 0 1 0 -4.872-1.125z"/><path d="m194.359 139.012 2.306-9.988a2.5 2.5 0 1 0 -4.872-1.125l-2.306 9.988a2.5 2.5 0 1 0 4.872 1.125z"/><path d="m173.608 134.023c2.331-10.1-4.25-18.224-14.09-18.224-9.612 0-18.875 7.511-21.089 17.1-2.343 10.146 4.329 18.216 14.091 18.216 9.652-.001 18.924-7.715 21.088-17.092zm-30.278 5.563a11.435 11.435 0 0 1 -.029-5.563c1.683-7.292 8.959-13.224 16.217-13.224 6.709 0 10.8 5.239 9.218 12.1a16.427 16.427 0 0 1 -3.389 6.683 7.915 7.915 0 0 0 -3.148-4.121 8.592 8.592 0 0 0 1.633-3.356 6.3 6.3 0 0 0 -6.232-8 9.089 9.089 0 0 0 -8.509 6.872 6.96 6.96 0 0 0 .172 3.847 13.3 13.3 0 0 0 -5.933 4.762zm15.63-8.607a4.085 4.085 0 0 1 -3.638 3c-1.16 0-1.615-.764-1.359-1.872a4.082 4.082 0 0 1 3.637-3c1.157 0 1.616.761 1.36 1.872zm-5.453 8h3.631c2.671 0 4.156 1.955 3.573 4.648a16.038 16.038 0 0 1 -8.191 2.49 9.929 9.929 0 0 1 -6.014-1.829 7.921 7.921 0 0 1 7.001-5.312z"/><path d="m61.469 106.94a2.5 2.5 0 0 0 0-5h-21.78a2.5 2.5 0 1 0 0 5z"/><path d="m34.059 120a2.5 2.5 0 0 0 2.5 2.5h21.77a2.5 2.5 0 1 0 0-5h-21.77a2.5 2.5 0 0 0 -2.5 2.5z"/><path d="m30.919 135.56a2.5 2.5 0 0 0 2.5 2.5h21.781a2.5 2.5 0 1 0 0-5h-21.781a2.5 2.5 0 0 0 -2.5 2.5z"/><path d="m27.789 151.12a2.5 2.5 0 0 0 2.5 2.5h21.78a2.5 2.5 0 1 0 0-5h-21.78a2.5 2.5 0 0 0 -2.5 2.5z"/><circle cx="211.719" cy="176.3" r="2.5"/><path d="m118.779 43.42a10.085 10.085 0 0 0 0-20.17h-19.11a10.085 10.085 0 1 0 0 20.17zm-24.2-10.09a5.115 5.115 0 0 1 5.09-5.08h19.11a5.085 5.085 0 0 1 0 10.17h-19.11a5.117 5.117 0 0 1 -5.09-5.09z"/><path d="m102.889 35.83h.75a2.5 2.5 0 0 0 0-5h-.75a2.5 2.5 0 0 0 0 5z"/><path d="m114.8 35.83h.75a2.5 2.5 0 0 0 0-5h-.75a2.5 2.5 0 0 0 0 5z"/><path d="m67.371 233.605h13.417a7.875 7.875 0 0 0 0-15.75h-13.417a7.875 7.875 0 1 0 0 15.75zm0-10.75h13.417a2.875 2.875 0 0 1 0 5.75h-13.417a2.875 2.875 0 0 1 0-5.75z"/></svg>